<svg xmlns="http://www.w3.org/2000/svg" viewBox="0 0 687.9 588.4"><defs><style>.cls-1{fill:#fcfcfc;}.cls-2{fill:#ce5a6e;}.cls-3{fill:#c6bb84;}.cls-4{fill:#fff;}.cls-5{fill:#4aa9a4;}.cls-6{fill:#e58840;}.cls-7{fill:#faf7d9;}.cls-8{fill:#d35b6e;}</style></defs><g id="Title"><path class="cls-1" d="M709.72,564.21a3.69,3.69,0,0,1,.73,5.08,3.6,3.6,0,0,1-5.07.74l-12.93-9.53,3.2,15a3.7,3.7,0,1,1-7.23,1.53l-1.87-8.78-1.47,4.77a11.36,11.36,0,0,1-8.46,7.81l-1.4.3a4.27,4.27,0,0,1-5.11-4.24,3.85,3.85,0,0,1,5.18-3.5l2.13.75,12.45-41.95-23.23,4.94a3.65,3.65,0,0,1-1.52-7.14l12.72-2.71L676.71,522a3.7,3.7,0,1,1,7.23-1.53l1.13,5.33,7.23-1.53a3.72,3.72,0,0,1,4.32-1.87,3.63,3.63,0,0,1,2.42,4.55l-7.25,24,.3.19Z" transform="translate(-564.12 -238.02)"/><polyline class="cls-2" points="125.75 294.2 104.21 298.78 121.22 309.48"/><path class="cls-1" d="M779.11,506.72a3.83,3.83,0,0,1,4.56,2.9l8.1,38.09a7.48,7.48,0,0,1-5.75,8.86l-26.85,5.71a3.63,3.63,0,0,1-4.28-2.78,3.58,3.58,0,0,1,2.78-4.28l26.68-5.67-7-32.93-24.63,5.24a6.55,6.55,0,0,1-7.76-5l-.6-2.79a3.7,3.7,0,0,1,7.23-1.54l.45,2.13,24.14-5.13A3.88,3.88,0,0,1,779.11,506.72Z" transform="translate(-564.12 -238.02)"/><path class="cls-1" d="M1081.32,439.9a4.48,4.48,0,0,1,5.29,3.51l7.77,36.53a2.91,2.91,0,0,1-2.18,3.47,3,3,0,0,1-3.49-2.26l-7.34-34.57-1.56.33,10.29,48.44a2.9,2.9,0,0,1-2.18,3.47,3,3,0,0,1-3.48-2.26l-10.3-48.44-1.64.35,7.37,34.64a2.77,2.77,0,1,1-5.42,1.16l-7.79-36.62a4.45,4.45,0,0,1,3.41-5.36l2.71-.58-1.26-5.91a2.9,2.9,0,0,1,2.28-3.4,2.84,2.84,0,0,1,3.39,2.2l1.25,5.91Zm39.42,21.56-11.9,2.54,4.48,5.31,1.07-3.83a3.21,3.21,0,0,1,3.91-2.21,2.93,2.93,0,0,1,2.16,3.75l-2.3,8.12,9.66,11.51a3.13,3.13,0,0,1-.3,4.27,3,3,0,0,1-4.25-.21l-21.16-25.28-.82.17,4.08,19.21,4.22-2.35a3.08,3.08,0,1,1,3,5.36l-8,4.36a3.26,3.26,0,0,1-4.83-2.15L1094.88,467a3,3,0,1,1-1.24-5.83l.49-.1-5.3-25a4.5,4.5,0,0,1,3.41-5.36l19.37-4.12a3,3,0,0,1,3.51,2.35,2.93,2.93,0,0,1-2.27,3.48l-17.73,3.77.87,4.11,16.09-3.42a2.91,2.91,0,0,1,3.41,2.28,2.83,2.83,0,0,1-2.2,3.38L1097.2,446l.78,3.7,16.09-3.43a2.84,2.84,0,0,1,3.39,2.2,2.91,2.91,0,0,1-2.18,3.47l-16.09,3.42.94,4.44,19.37-4.12a3,3,0,1,1,1.24,5.82Z" transform="translate(-564.12 -238.02)"/><path class="cls-2" d="M834.09,501.09a5.87,5.87,0,0,0,1.87-.35c.5-.28.4-1.06.67-1.58s.5-1,.79-1.4a3.8,3.8,0,0,0,.61-1.63,1.49,1.49,0,0,1,1.46-1.27,2.5,2.5,0,0,1,2.21,1.07c.3.44.6.88.93,1.3a5.75,5.75,0,0,0,.76.8c.74.65.84.63,1.68.16a14.35,14.35,0,0,1,1.85-.9c3.12-1.19,4.49-3.63,4.88-6.77a5.36,5.36,0,0,1,.12-1,1.23,1.23,0,0,0-.68-1.49,4,4,0,0,1-1-.85.81.81,0,0,0-.64-.23A36.48,36.48,0,0,0,813.11,508a35.92,35.92,0,0,0-2.72,22.17c0,.15.05.29.07.44s0,0,0,.08c-5.24-12.48-4-30,7.47-43.07a42.1,42.1,0,1,1,48,66.48l.41-.3A36.23,36.23,0,0,0,880,537.1c.53-1.29,1-2.61,1.36-3.94.12-.42,0-.51-.37-.52a13.33,13.33,0,0,0-5.12.79c-1,.36-2,.73-3,1.12a1.5,1.5,0,0,1-1.46-.16,12.7,12.7,0,0,0-3.78-1.82,11.88,11.88,0,0,0-5.74.3,2.6,2.6,0,0,0-.63.3,1.39,1.39,0,0,0-.77,1.28,14.48,14.48,0,0,1-7.94,12.67,11.22,11.22,0,0,1-8.7.93,2.45,2.45,0,0,1-1.52-1.07c-.29-.49-.19-.78.35-1a6.62,6.62,0,0,1,1.93-.27,20,20,0,0,0,3.77-.45,10.52,10.52,0,0,0,7.41-6,9.39,9.39,0,0,0,.58-5.27c-.11-.89-.28-1.77-.42-2.66a1.28,1.28,0,0,0-.22-.55c-.28-.4-.52-.83-.83-1.2a19.57,19.57,0,0,1-3.64-7.52c-.68-2.47-1.3-5-2.2-7.38a17.05,17.05,0,0,0-4.27-6.71,1.78,1.78,0,0,0-.68-.39c-.9-.27-1.8-.53-2.68-.85a9.62,9.62,0,0,1-3.31-2.21,11.7,11.7,0,0,0-2.16-1.68A4.49,4.49,0,0,1,834.09,501.09Zm36,23.47c.18.31,1.55,2.62,2.17,4a2.68,2.68,0,0,0,2,1.6,8,8,0,0,0,2.89-.09,9.32,9.32,0,0,1,4.45.33c.32.12.38,0,.44-.26a29.41,29.41,0,0,0,.56-4.17,36.05,36.05,0,0,0-10.38-28.23,35.61,35.61,0,0,0-17.63-10,11.12,11.12,0,0,1,.37,1.66,23.89,23.89,0,0,1-1.11,9.35c-.11.37,0,.51.26.69a11.53,11.53,0,0,1,4.1,4.05,17.2,17.2,0,0,1,2,5.73,56.89,56.89,0,0,0,1.8,7.28,12.1,12.1,0,0,1,.83,3.23c0,.22.17.27.33.33.66.27,1.34.53,2,.81C865.23,520.92,869.92,524.25,870.11,524.56Z" transform="translate(-564.12 -238.02)"/><polygon class="cls-2" points="551.13 224.61 549.2 231.29 544.72 225.98 551.13 224.61"/></g><g id="BG-Cat"><path class="cls-3" d="M873.17,758.54a158.79,158.79,0,0,1-11.91-42.25C856.5,679.49,864.34,645.42,884,614a13.66,13.66,0,0,0,2.13-9.49A379.08,379.08,0,0,1,888,504.38a352.52,352.52,0,0,1,10.37-47.22c.85-2.88.05-3.66-2.51-4.64-17.69-6.79-31.88-18-42.13-33.81-1.59-2.46-2.66-2.24-4.85-1-13.52,7.6-27.07,15.12-40.18,23.39-1,.62-2.27,2.67-3.63.49s1-2.41,2.07-3.07c12.82-8.18,26-15.73,39.44-22.89,3.33-1.78,4-3.33,1.78-6.24a7.37,7.37,0,0,1-1.14-2.4c-.72-2.64-1.87-3.27-4.78-2.28-12.44,4.22-25,8.11-37.52,12-1.2.38-2.92,2-3.76-.19-1-2.65,1.77-2.29,3-2.69,12.33-4,24.73-7.91,37.08-11.92,1.4-.46,4.27-.35,2.8-3.18-1.13-2.17.28-6.31-4.91-5.54-17.17,2.55-34.38,4.8-51.37,8.44-1.34.29-3.44,1.91-3.94-.86-.42-2.32,2-1.81,3.13-2.06,16.53-3.59,33.25-6.1,50-8.13,3.12-.37,5-.59,4.1-4.87a56.19,56.19,0,0,1-.56-20.77c.38-2.23-.36-3.91-1.51-5.76-10.19-16.39-20.27-32.83-25.69-51.55A118.73,118.73,0,0,1,808.84,277c-.06-2.46.73-3,3-2.81,26.81,2.34,53.18,6.42,77.46,18.87a5.63,5.63,0,0,0,5.34.43,85.84,85.84,0,0,1,35.87-6.81,6.51,6.51,0,0,0,5.65-2.59c17.42-20,39.74-33.42,63-45.56,2.85-1.49,2.9.6,3.51,2.06,6.68,16,9.16,32.71,8.49,49.94-.48,12.46-2.35,24.76-4.27,37a7.46,7.46,0,0,0,.78,5c5.46,10.34,9.1,21.27,9.5,33,.14,4.22,1.89,5,5.68,4.56a475.09,475.09,0,0,1,47.55-2.87c1.2,0,2.4,0,3.6,0s2.19,0,2.1,1.59-1.31,1.3-2.3,1.37c-.75,0-1.5,0-2.25,0-16.5,0-32.91,1.67-49.35,2.81a5.69,5.69,0,0,0-5.09,7.87c.61,1.69,2.27,1.16,3.45,1.27,11.18,1.08,22.37,2.05,33.56,3a26.54,26.54,0,0,1,4.91.5c1.29.36,4-.83,3.57,1.95-.3,2.26-2.44,1.11-3.7,1-7.91-.63-15.81-1.41-23.71-2.13-5.08-.46-10.16-.78-15.22-1.38-2.59-.31-3.57.31-4,3.06-1.3,7.37-1.49,7.35,5.72,9.42,13.35,3.83,26.6,8,39.67,12.65,1.12.4,4.1-.09,2.93,2.65-1.06,2.5-2.82.45-4.11,0-14.43-4.89-29-9.36-43.59-13.69-2.64-.78-3.5-.32-4.41,2.24a73.33,73.33,0,0,1-12.89,22.71c-1.86,2.23-1.84,3.61-.11,6q42.44,57.58,84.65,115.35c19.89,27.25,39,55,52.35,86.13,10.86,25.38,17.22,51.64,16,79.39-2.45,56.61-36.41,97.42-92,110.67-25.15,6-50.49,5.59-75.92,2.25-32.42-4.26-63.79-13.32-95.59-20.42-28.43-6.35-57-11-86.36-9.33-20.06,1.13-39.39,5.25-57.66,13.76-5.68,2.65-11.37,5.26-17.69,6.19a24.26,24.26,0,0,1-9.79-.48c-10.62-2.79-14.77-13.06-9-22.33a29.84,29.84,0,0,1,10-9.44c38.48-24,80.39-33.49,125.62-28.91A201.22,201.22,0,0,1,873.17,758.54Z" transform="translate(-564.12 -238.02)"/><path class="cls-4" d="M630.3,599c-.77-6.09-1.52-12-2.29-18.16-.32.34-.55.57-.77.82-2.68,3.08-5.36,6.15-8,9.25a1,1,0,0,1-1.27.37A25.85,25.85,0,0,0,594.41,596a1.06,1.06,0,0,1-1.32.11c-3.73-1.87-7.48-3.72-11.21-5.58l-.76-.36,1.12,4.09c1.22,4.37,2.45,8.75,3.64,13.13a2,2,0,0,1-.1,1.08,26.16,26.16,0,1,0,50.09,15.12,1.71,1.71,0,0,1,1.86-1.45c5.29-.27,9.41,1.79,12.08,6.31a12.09,12.09,0,0,1-.33,13.67,45.56,45.56,0,0,1-24.3,18.4,46.42,46.42,0,0,1-32.31-87c15.62-6.42,30.63-4.57,44.67,4.78a10.51,10.51,0,0,1,4.7,7.19c1.2,6.93-3.69,13.54-11,13.53C631,599.06,630.66,599,630.3,599Z" transform="translate(-564.12 -238.02)"/><path class="cls-5" d="M600.53,618.15a4,4,0,1,1,3.15-4.71A4,4,0,0,1,600.53,618.15Z" transform="translate(-564.12 -238.02)"/><path class="cls-2" d="M624.06,609.47a4,4,0,1,1-4.65-3.23A4,4,0,0,1,624.06,609.47Z" transform="translate(-564.12 -238.02)"/><path class="cls-6" d="M612.35,623.39a4.27,4.27,0,0,1-3.73-1,1.19,1.19,0,0,1-.12-1.88,5,5,0,0,1,6-1.2,1.18,1.18,0,0,1,.63,1.78A4.12,4.12,0,0,1,612.35,623.39Z" transform="translate(-564.12 -238.02)"/></g><g id="Title-Upper"><path class="cls-1" d="M1032.36,499.05a4.16,4.16,0,0,1,6.76.71,4.2,4.2,0,0,1-2.71,6.24l-18.14,3.85a7.42,7.42,0,0,1-8.86-5.75l-5-23.48-6.07,1.29a3.4,3.4,0,1,1-1.42-6.65L1003,474l-2.83-13.3-4.6,1a3.4,3.4,0,1,1-1.41-6.65l29.48-6.27a3.4,3.4,0,0,1,1.41,6.65l-17.82,3.79,2.83,13.3,19.21-4.09a3.4,3.4,0,1,1,1.42,6.65l-19.22,4.09,5.07,23.81,15.19-3.23Z" transform="translate(-564.12 -238.02)"/><path class="cls-1" d="M948.67,494.53c3.2.52,4.54,3.58,3,6.4a3.74,3.74,0,0,1-5.9.49l-6.34-1.15-3.54,20.49a11,11,0,0,1-8.48,8.93l-2.55.54a4,4,0,0,1-4.81-4.47,4.23,4.23,0,0,1,6-3.25l1.89.8,4.2-24.23-15.51-2.71a3.6,3.6,0,0,1-3-4.16,3.72,3.72,0,0,1,4.25-3l15.5,2.71,3.51-20.66-2,.42a3.36,3.36,0,0,1-1.4-6.57l5.17-1.09a5.05,5.05,0,0,1,6.05,5.83l-4.05,23.35Z" transform="translate(-564.12 -238.02)"/><path class="cls-4" d="M990.3,530.52c-2,.09-352,78.85-353.14,79.15-2.73.58-2.28,2.72.47,2.09,1.79-.4,351.32-78.41,353.26-79.17A1.13,1.13,0,0,0,990.3,530.52Z" transform="translate(-564.12 -238.02)"/><path class="cls-4" d="M1179.54,484.45c-.72-.21-119.1,30.19-119.08,30.17s1.29,2,1.3,2,117.82-29.4,118.41-29.91A1.5,1.5,0,0,0,1179.54,484.45Z" transform="translate(-564.12 -238.02)"/><path class="cls-7" d="M833.39,576.09l3.88-.81s.06,0,.06,0l.66,3.17,3.53-.74v0c.05.23.31,1.55.77,4l0,0-3.58.84.26,1.27a6.29,6.29,0,0,1,.11.65,14.79,14.79,0,0,0,.87,2.59q.06.11.12.09a25.78,25.78,0,0,0,1.52-2.1c1.29.71,2.25,1.26,2.86,1.64a8.54,8.54,0,0,1-.83,2.32c-.75,1.42-1.57,2.22-2.44,2.4l-.44.09a4.23,4.23,0,0,1-3-.84,4.62,4.62,0,0,1-1.44-2,29.67,29.67,0,0,1-1.53-5.25h0l-2.3.42L831.6,580a.07.07,0,0,1,0-.07l2.44-.54Z" transform="translate(-564.12 -238.02)"/><path class="cls-7" d="M842.64,574.13l3.85-.8.39,1.86a4.09,4.09,0,0,1,1.12-.43,5.59,5.59,0,0,1,2.74.14,5.52,5.52,0,0,1,2.86,2.79A16.86,16.86,0,0,1,855,582l.3,1.43c.3,1.44.58,3.06.86,4.88l-3.83.8-.5-2.86q-1.18-5.67-2-6.87c-.26-.35-.47-.5-.64-.47l-.18,0c-.47.1-.7.66-.69,1.67a43.71,43.71,0,0,0,1,6.79c.09.46.26,1.22.5,2.27l-3.86.8L842.6,574.2S842.61,574.14,842.64,574.13Z" transform="translate(-564.12 -238.02)"/><path class="cls-7" d="M857.54,571l.84,4a.05.05,0,0,1,0,.07l-3.8.79-.85-4.06Zm-2.85,5.74,3.82-.8,2.39,11.42-3.83.8Z" transform="translate(-564.12 -238.02)"/><path class="cls-7" d="M863.22,571.61a13.7,13.7,0,0,1,5.76.61v0l-.64,4s-.73-.09-2.07-.3a8.3,8.3,0,0,0-2.51-.18.25.25,0,0,0-.23.19,4.58,4.58,0,0,0,1.43.69c1.4.42,2.36.73,2.88.92,1.71.74,2.69,1.72,2.94,2.92l.07.35a4.3,4.3,0,0,1-.63,3.27,4.56,4.56,0,0,1-2.79,1.91l-.77.16a13.26,13.26,0,0,1-5.17-.33l-.06-.05c.11-1.6.22-2.87.33-3.82a21.51,21.51,0,0,0,4.62-.07l.26,0c.2,0,.3-.11.31-.21s-.49-.33-1.38-.56c-1.46-.45-2.58-.83-3.35-1.13a7.85,7.85,0,0,1-1.38-.84,3.75,3.75,0,0,1-1.22-2.12l0-.19a4.13,4.13,0,0,1,1.73-4.32A5.3,5.3,0,0,1,863.22,571.61Z" transform="translate(-564.12 -238.02)"/><path class="cls-8" d="M885.61,564.9c2.17-.21,3.53-.3,4.07-.28l1.33,16.1q0,.22,0,.24l-3,.62c-2-2.9-3.11-4.45-3.22-4.64h0s-.36,1.91-1.1,5.66l-3.11.64v0l-4.83-15.8h0c.11,0,1.37-.41,3.76-1.15q.36,1.32,2,6.43h0s.16-.88.49-2.56l2.52-.52c.13.12.68.89,1.66,2.31a.32.32,0,0,1,.15.22h0Q885.6,565.11,885.61,564.9Z" transform="translate(-564.12 -238.02)"/><path class="cls-8" d="M895.2,565.07q2.68-.55,4.71,2.27A8.29,8.29,0,0,1,901,570l.36,1.7a11.35,11.35,0,0,1-.1,4.77,8.88,8.88,0,0,1-.68,1.5l-.43.51a3.72,3.72,0,0,1-1.84,1.09l-1,.2a4.54,4.54,0,0,1-3.22-.52q-2.13-1.31-2.91-5.07c-.79-3.8-.25-6.45,1.63-8A5.87,5.87,0,0,1,895.2,565.07Zm0,8.43.07.32c.22,1,.61,1.64,1.16,1.82a1.09,1.09,0,0,0,.32,0l.15,0c.6-.13.86-1,.78-2.57q-.12-.94-.3-1.83l-.08-.37c-.2-1-.5-1.5-.89-1.6a.94.94,0,0,0-.44,0l-.2,0c-.56.12-.82,1-.79,2.51C895,572.52,895.1,573.1,895.18,573.5Z" transform="translate(-564.12 -238.02)"/><path class="cls-8" d="M903.65,563.17c.14.32.21.51.23.57a3.32,3.32,0,0,1,1.67-1c1.71-.36,3.24.5,4.56,2.58a6,6,0,0,1,.49,1h0c-2,1.41-3,2.12-3,2.13h0c-.43-1.08-.86-1.57-1.31-1.48l-.13,0c-.41.09-.59.56-.53,1.41a1.45,1.45,0,0,0,0,.3q1.85,7.94,2,8.79l-4,.84-3-14.51h0l3-.77Z" transform="translate(-564.12 -238.02)"/><path class="cls-8" d="M913.94,559.12l3.8,16.16h0l-3.82,1v0L910.08,560h0l3.83-.94Z" transform="translate(-564.12 -238.02)"/><path class="cls-8" d="M921.53,557.6l3.91-.82q2.41,11.24,3.49,16.33l-3.19.67-.08-.38a8,8,0,0,1-2.07.86c-1.93.4-3.56-.32-4.91-2.17a10.48,10.48,0,0,1-1.58-3.74l-.14-.67a10.55,10.55,0,0,1,.13-5,4.52,4.52,0,0,1,3.63-3,8.65,8.65,0,0,1,1.2-.14Zm-.73,9,.14.68a4.43,4.43,0,0,0,1.49,2.88.56.56,0,0,0,.31.08l.26-.06a.81.81,0,0,0,.7-.85,13.46,13.46,0,0,0-.31-3.07,3,3,0,0,0-1.62-2.46,2.6,2.6,0,0,0-.37,0c-.46.1-.7.64-.74,1.63A7,7,0,0,0,920.8,566.56Z" transform="translate(-564.12 -238.02)"/><path class="cls-5" d="M769.81,590.93l.7-.13a10.81,10.81,0,0,1,6.61.45,4.5,4.5,0,0,1,2.4,3.17l.09.49a5.81,5.81,0,0,1-1.84,5.2,13.45,13.45,0,0,1-2,1.53,12.06,12.06,0,0,1-2.61,1.21l.83,4.31h0l-4,.71-3-16.19A18.28,18.28,0,0,1,769.81,590.93Zm1.8,3.94.72,3.77h0a9.84,9.84,0,0,0,2.33-1.35c.78-.69,1.12-1.3,1-1.86l0-.16c-.08-.42-.73-.63-2-.64a12.44,12.44,0,0,0-1.91.2Z" transform="translate(-564.12 -238.02)"/><path class="cls-5" d="M779.66,590.82l3.94-.76c.07.33.29,1.53.66,3.59q1.11,5.79,1.8,6.47a.74.74,0,0,0,.35.27l.21,0a.81.81,0,0,0,.26-.58,17.71,17.71,0,0,0-.49-4.8l0-.22c-.18-1-.53-2.59-1-4.93l3.81-.73s.06,0,.06,0a93,93,0,0,0,2.46,9.21c.34.78.61,1.15.8,1.12h0c.34-.32.37-1.51.09-3.59-.1-.79-.21-1.49-.33-2.11-.18-1-.54-2.59-1.1-4.91h0l3.84-.76v0q.84,3.4,1.31,5.86l0,.08c.51,2.71.6,4.67.24,5.89-.54,2-1.58,3.21-3.1,3.5l-.41.08a4,4,0,0,1-3.09-.65,4.51,4.51,0,0,1-2.53,1.72l-.34.07a4,4,0,0,1-3.34-1.11,8.31,8.31,0,0,1-2-3.2,43,43,0,0,1-1.35-5.34l-.36-1.88C780,592.56,779.83,591.79,779.66,590.82Z" transform="translate(-564.12 -238.02)"/><path class="cls-5" d="M801.2,586.75l.28,0a4.51,4.51,0,0,1,3.2.74,6.12,6.12,0,0,1,1.67,1.93,26.38,26.38,0,0,1,1.81,6.1l.4,2.09c.13.68.29,1.64.47,2.87l-4.1.78v0a42.48,42.48,0,0,0-.62-4.5c-.57-3-1.11-4.78-1.65-5.52a.67.67,0,0,0-.59-.28l-.25.05c-.49.1-.64,1.17-.46,3.21.11,1.22.31,2.57.59,4.06l.27,1.38c.09.5.23,1.2.42,2.09l-3.92.75-2.79-14.59,3.2-.61.07.35h0A7.71,7.71,0,0,1,801.2,586.75Z" transform="translate(-564.12 -238.02)"/></g><g id="PWN-BG"><path class="cls-4" d="M815.59,593.62l13.16-3-1.37-5.95-8.91,2,.38,1.7-1.51.35-.39-1.71-8,1.81-.37-1.62,8-1.82-.42-1.84,1.52-.34.42,1.84,8.91-2-1.12-4.82-7.48,1.69-.82-3.65-19,4.38-1.32-5.28-15.45,3.5,1.2,5.37-26.22,6v0l.55,2.46.12.48-4.31,1,.3,1.34-4.76,1.08.57,2.48,6.7-1.52.59,2.6-4.18.95.18.81-2.5.57.55,2.38,3.34-.75.46,2,3.69-.84-.57-2.52,4.19-1,.57,2.52,2.85-.64.62,2.76L754.9,609l.94,4.15,1.31-.3.26,1.16-2.86.64.53,2.3,3.08-.7.24,1.07,2-.45h0l-.16-.74-.2-.88-2,.45-.13-.57,2-.44-1-4.52,2.76-.62.73,3.22,24.33-5.5.76,3.37,2.82-.65-.3-1.3,19-4.3-.67-2.92,8.67-2Zm-17.09-7.09.07.35h0a7.4,7.4,0,0,1,2-.88l.28-.06a4.52,4.52,0,0,1,3.21.65,5.94,5.94,0,0,1,1.73,1.88,26.63,26.63,0,0,1,2,6l.29,1.31-4.58-2a11.09,11.09,0,0,0-1.33-3.49.66.66,0,0,0-.6-.27l-.25.06c-.43.1-.58,1-.43,2.58l-4.78-2-.76-3.46Zm-20.67,13.08-3.14-2.32-.17-.19c.63-.64.9-1.21.79-1.71l0-.16c-.1-.42-.76-.61-2-.59a12.23,12.23,0,0,0-1.91.26l-.18,0,.83,3.76h0a6.32,6.32,0,0,0,1.5-.84l3.34,2.71a11.86,11.86,0,0,1-1.35,1,12.48,12.48,0,0,1-2.57,1.28l.95,4.29h0c-2.46.5-3.78.77-4,.82l-3.42-16.1a17.33,17.33,0,0,1,2.77-.84l.69-.15a10.92,10.92,0,0,1,6.62.26,4.5,4.5,0,0,1,2.49,3.11l.1.49A5.6,5.6,0,0,1,777.83,599.61Zm18.46-.3q-.74,3.08-3,3.58l-.41.09a4.06,4.06,0,0,1-3.11-.56,4.56,4.56,0,0,1-2.48,1.79l-.33.08a4,4,0,0,1-3.37-1,8.27,8.27,0,0,1-2.07-3.14,41.77,41.77,0,0,1-1.49-5.3l-.41-1.87c-.13-.56-.29-1.33-.49-2.3l3.93-.86.76,3.57q1.27,5.75,2,6.41a.72.72,0,0,0,.35.26l.21,0a.78.78,0,0,0,.24-.59,17.75,17.75,0,0,0-.62-4.79l-.05-.22c-.21-.94-.6-2.57-1.19-4.89l3.8-.84a.07.07,0,0,1,.06,0,88.65,88.65,0,0,0,2.72,9.15c.36.77.63,1.13.83,1.09h0c.33-.33.32-1.53,0-3.59-.12-.79-.25-1.49-.38-2.1q-.31-1.41-1.24-4.88h0l3.81-.87v0q.93,3.38,1.47,5.82l0,.08A14,14,0,0,1,796.29,599.31Zm2.23,2.42-1.91-8.66,4.57,2.07c.13.72.27,1.48.45,2.28l.3,1.38c.11.49.27,1.18.49,2.07Zm6.17-1.39v0c-.14-1.24-.36-2.54-.63-3.87l4.54,2c0,.3.11.61.17,1Z" transform="translate(-564.12 -238.02)"/></g><g id="Author"><path d="M1160,570.82c-1,.53-1.9,1.09-2.87,1.55a19.81,19.81,0,0,1-27.85-21.57,56.87,56.87,0,0,1,1.68-7.53,27.6,27.6,0,0,1,1.65-4.17,4.88,4.88,0,0,1,.58-.87,1.33,1.33,0,0,1,1.54-.46c.59.19,1.18.41,1.76.66a.57.57,0,0,0,.68-.06,19.77,19.77,0,0,1,21.49-1.1,19.54,19.54,0,0,1,7.06,7.1,21.87,21.87,0,0,1,2.56,15.64,46.58,46.58,0,0,1-3.58,11.1c-.34.7-.71,1.38-1.08,2.07a.58.58,0,0,1-.88.27,5.93,5.93,0,0,1-1.61-1.34C1160.78,571.68,1160.4,571.23,1160,570.82Zm-14.15-17.52-.07-.08a1.5,1.5,0,0,1,.2-.24,6.92,6.92,0,0,0,1.92-4.29,19,19,0,0,0-1.07-8.39c-.16-.46-.29-.51-.74-.32a12,12,0,0,0-2.87,1.84.39.39,0,0,1-.28.1,13.87,13.87,0,0,0-4.72-.23.62.62,0,0,1-.34-.11c-.75-.51-1.49-1-2.24-1.53a7.59,7.59,0,0,0-1-.49.35.35,0,0,0-.48.16,5.92,5.92,0,0,0-.33.61c-.44,1.17-.92,2.33-1.31,3.53a43.74,43.74,0,0,0-1.63,7.78,18.12,18.12,0,0,0,20.92,20.6c.3,0,.6-.15.9-.22-.25-.7-.48-1.36-.7-2a15.74,15.74,0,0,1-.89-6.7,7.56,7.56,0,0,1,2-4.62,3.09,3.09,0,0,0,.32-.4l-.19,0-.17.07a9,9,0,0,0-3.73,3.35,6.53,6.53,0,0,1-1.16,1.36,1.59,1.59,0,0,1-2.22,0,2.23,2.23,0,0,1-.85-1.92,3.78,3.78,0,0,1,.54-1.82,8.18,8.18,0,0,1,2.12-2.38c.94-.75,1.9-1.45,2.82-2.21a8.38,8.38,0,0,0,2.14-2.52,2.86,2.86,0,0,0,.14-2.71,1.65,1.65,0,0,0-2.79-.65,6.42,6.42,0,0,0-1.1,1.28,11.56,11.56,0,0,1-2.19,2.44C1146.58,552.87,1146.23,553.07,1145.89,553.3Zm12.68,7.81a1.64,1.64,0,0,0-2-.58,2,2,0,0,0-.66.55.44.44,0,0,0,0,.41c.07.07.26.06.4,0s.13-.09.2-.14a1,1,0,0,1,1.16,0,.62.62,0,0,1,0,1.12s0,0,0,0a.47.47,0,0,0-.23.55.45.45,0,0,0,.42.37c.41,0,.81.06,1.22.08a.39.39,0,0,0,.43-.31.94.94,0,0,0-.11-.54c-.06-.11-.23-.16-.3-.28a.58.58,0,0,1-.11-.41,1.23,1.23,0,0,1,1.88-.42c.22.23.42.27.59.12s.15-.39,0-.63a1.64,1.64,0,0,0-1-.57A2,2,0,0,0,1158.57,561.11Zm2.52,2.48a1.47,1.47,0,0,0-.22.22c-.16.19-.27.4-.08.62s.41.14.62,0a1,1,0,0,1,1.34.15c.24.2.43.22.61.06s.18-.37,0-.63A1.61,1.61,0,0,0,1161.09,563.59Zm-5-.14a1.47,1.47,0,0,0-2.34,0c-.12.15-.16.35,0,.47a.94.94,0,0,0,.45.11c.06,0,.13-.07.2-.09a1.08,1.08,0,0,1,1.1.07c.25.19.46.2.62,0A.45.45,0,0,0,1156.07,563.45Z" transform="translate(-564.12 -238.02)"/><path d="M1109.66,534.75q7.69-.19,10.49-.14.78,20.82,1.38,42.14c-4.84.35-7.58.54-8.21.6q-12.9-17.24-13-17.36v.07l.89,17.92-.13.08-10.38.84v-.07q-1.9-37.37-2-41c.65-.06,3.32-.25,8-.58q13.27,17.92,13.7,18.43v-.07Q1109.67,537.57,1109.66,534.75Z" transform="translate(-564.12 -238.02)"/><path d="M1198.25,526.16h.07l10,3.06q0,.36-6.76,23.55l-5.11,17.91-7.5.61a37.66,37.66,0,0,1-2.31-5q-.15-.11-12.47-27.63-2.82-6.06-2.85-6.4,7.07-3.33,9.67-4.32l10,22.19.14,0Z" transform="translate(-564.12 -238.02)"/><path d="M1225.76,525.76l7.63-.62Q1250,563.9,1250,564.08q-8.79,3.95-9.68,4.24c0-.1-1-2.32-2.87-6.68l-11.84,1a61.7,61.7,0,0,0-2.14,6.66c-.2.68-.34,1-.41,1l-10.17-3.55v-.07Q1225.54,526.55,1225.76,525.76Zm4.83,20.42q-.39,1.4-1.74,5.57l4.14-.34c-1-2.26-1.79-4-2.26-5.24Z" transform="translate(-564.12 -238.02)"/><path class="cls-7" d="M1111.71,534.48q7.71-.19,10.5-.14.78,20.82,1.38,42.14c-4.84.35-7.58.54-8.21.6q-12.9-17.24-13.05-17.36v.07l.89,17.92-.14.08-10.37.84v-.07q-1.9-37.38-2-41l8-.57q13.27,17.92,13.7,18.43v-.07Q1111.73,537.29,1111.71,534.48Z" transform="translate(-564.12 -238.02)"/><path class="cls-7" d="M1200.31,525.88h.07l10,3.06q0,.36-6.76,23.55l-5.11,17.91-7.5.61a36.72,36.72,0,0,1-2.31-5q-.15-.09-12.47-27.63-2.82-6-2.85-6.4,7.07-3.32,9.67-4.31l10.05,22.18h.14Z" transform="translate(-564.12 -238.02)"/><path class="cls-7" d="M1227.81,525.49l7.64-.62Q1252,563.63,1252,563.8q-8.77,4-9.67,4.25c0-.1-1-2.33-2.87-6.68l-11.84,1a59,59,0,0,0-2.14,6.66c-.21.67-.34,1-.41,1l-10.17-3.55v-.07Q1227.6,526.28,1227.81,525.49Zm4.83,20.41q-.37,1.41-1.73,5.58l4.13-.34c-1-2.27-1.78-4-2.26-5.25Z" transform="translate(-564.12 -238.02)"/><path class="cls-6" d="M1161.69,569.8c-1,.52-1.9,1.08-2.87,1.54A19.8,19.8,0,0,1,1131,549.77a57.09,57.09,0,0,1,1.68-7.52,28.2,28.2,0,0,1,1.64-4.17,5.12,5.12,0,0,1,.59-.87,1.32,1.32,0,0,1,1.54-.47,16.15,16.15,0,0,1,1.75.67.59.59,0,0,0,.69-.07,19.77,19.77,0,0,1,21.49-1.09,19.41,19.41,0,0,1,7.05,7.09A21.83,21.83,0,0,1,1170,559a46.09,46.09,0,0,1-3.59,11.11c-.33.7-.71,1.38-1.07,2.06a.57.57,0,0,1-.88.27,5.76,5.76,0,0,1-1.61-1.34C1162.43,570.66,1162.05,570.21,1161.69,569.8Zm-14.15-17.53-.07-.08.19-.24a6.85,6.85,0,0,0,1.93-4.28,19.06,19.06,0,0,0-1.07-8.4c-.16-.46-.29-.51-.75-.31a12.1,12.1,0,0,0-2.86,1.83.4.4,0,0,1-.28.1,13.87,13.87,0,0,0-4.72-.23.53.53,0,0,1-.34-.11c-.75-.5-1.49-1-2.25-1.53a6.47,6.47,0,0,0-1-.48.33.33,0,0,0-.47.15,6.08,6.08,0,0,0-.33.61c-.45,1.17-.92,2.34-1.31,3.53a43.94,43.94,0,0,0-1.64,7.78,17.73,17.73,0,0,0,5.21,15.65,17.52,17.52,0,0,0,15.72,5,7.37,7.37,0,0,0,.9-.22c-.25-.7-.49-1.36-.71-2a16,16,0,0,1-.89-6.71,7.47,7.47,0,0,1,2.06-4.61c.1-.11.19-.23.32-.4l-.19,0-.18.08a9,9,0,0,0-3.72,3.34,6.06,6.06,0,0,1-1.16,1.36,1.58,1.58,0,0,1-2.22,0,2.27,2.27,0,0,1-.86-1.92,3.87,3.87,0,0,1,.55-1.81,8.1,8.1,0,0,1,2.12-2.39c.93-.74,1.9-1.45,2.81-2.21a8.12,8.12,0,0,0,2.14-2.52,2.86,2.86,0,0,0,.15-2.71,1.65,1.65,0,0,0-2.8-.64,6.36,6.36,0,0,0-1.09,1.27,11.66,11.66,0,0,1-2.2,2.45C1148.23,551.84,1147.87,552.05,1147.54,552.27Zm12.68,7.81a1.64,1.64,0,0,0-2-.58,1.87,1.87,0,0,0-.66.56c-.07.07,0,.31,0,.4s.26.06.39,0,.14-.08.21-.13a1,1,0,0,1,1.16,0,.62.62,0,0,1,0,1.12l0,0a.49.49,0,0,0,.19.92c.41,0,.81.06,1.22.07a.38.38,0,0,0,.43-.31,1,1,0,0,0-.11-.53c-.06-.12-.23-.17-.3-.28a.68.68,0,0,1-.12-.42,1.24,1.24,0,0,1,1.89-.42c.22.24.42.28.59.12s.15-.39,0-.62a1.6,1.6,0,0,0-1-.57A2,2,0,0,0,1160.22,560.08Zm2.51,2.48s-.13.12-.22.22-.26.41-.07.62.41.14.62,0a1,1,0,0,1,1.34.14c.24.2.43.22.61.07a.47.47,0,0,0,0-.63A1.62,1.62,0,0,0,1162.73,562.56Zm-5-.14a1.49,1.49,0,0,0-2.35,0,.34.34,0,0,0,0,.48.81.81,0,0,0,.45.1c.06,0,.13-.06.2-.09a1.06,1.06,0,0,1,1.1.08c.25.18.46.19.62,0S1157.89,562.67,1157.72,562.42Z" transform="translate(-564.12 -238.02)"/><path class="cls-6" d="M1142.13,549.94a2.11,2.11,0,0,1-1.88.6,1.62,1.62,0,0,1-1.16-.68.41.41,0,0,1,.08-.61.38.38,0,0,1,.52.09,1.29,1.29,0,0,0,2-.35.42.42,0,0,0-.14-.49c-.09-.09-.2-.16-.3-.25a.44.44,0,0,1-.13-.55c.09-.15.29-.34.45-.34a8.79,8.79,0,0,1,1.35.07.48.48,0,0,1,.4.41.49.49,0,0,1-.22.53l-.07,0a.69.69,0,0,0,.1,1.28,1,1,0,0,0,1.08-.08c.08-.05.15-.15.23-.15a.71.71,0,0,1,.42.08.41.41,0,0,1,0,.39,1.24,1.24,0,0,1-.85.66A1.81,1.81,0,0,1,1142.13,549.94Z" transform="translate(-564.12 -238.02)"/><path class="cls-6" d="M1139.5,547.34a1.8,1.8,0,0,1-2.41-.48.51.51,0,0,1,0-.68c.18-.16.39-.13.64.07a1.28,1.28,0,0,0,1.39.16c.09,0,.19-.11.28-.1a.62.62,0,0,1,.39.12.46.46,0,0,1,0,.41A2.8,2.8,0,0,1,1139.5,547.34Z" transform="translate(-564.12 -238.02)"/><path class="cls-6" d="M1147,547.79a1.7,1.7,0,0,1-2.14-.21.78.78,0,0,1-.21-.49.4.4,0,0,1,.65-.3,1.31,1.31,0,0,0,1.41.11.43.43,0,0,1,.58.08c.17.23.06.44-.1.63S1147,547.75,1147,547.79Z" transform="translate(-564.12 -238.02)"/><polygon class="cls-2" points="618.98 289.61 634.13 288.14 628.03 309.59 618.98 289.61"/><polygon class="cls-2" points="549.21 339.33 538.37 324.89 539.11 339.69 549.21 339.33"/></g></svg>