<svg id="图层_2" data-name="图层 2" xmlns="http://www.w3.org/2000/svg" viewBox="0 0 411.13 398.42"><defs><style>.cls-1{fill:#283c5f;}</style></defs><path class="cls-1" d="M949,487.05c10.87,13,26.1,16.8,41.42,10.39,10-4.18,18-11.15,24.52-19.84,17.87-23.73,25.7-50.77,23.69-80.82a70.65,70.65,0,0,0-8.81-30.4c-10.56-18.66-29.28-26-48.14-18.78-11.23,4.3-20.09,12-27.38,21.66-14.64,19.46-20.58,42-21.2,64.72a116.9,116.9,0,0,0,1.7,20.45C937.06,466.47,941.16,477.67,949,487.05Z" transform="translate(-710.87 -344.86)"/><path class="cls-1" d="M804.56,562.63a59.34,59.34,0,0,0,4.18-22.82,80.22,80.22,0,0,0-18.44-50.52c-7.91-9.73-17.55-17-29.47-20.32-13.32-3.77-25.79-2.09-36.38,7.84-8.67,8.13-12.57,18.77-13.39,30.63-1.31,18.95,4.28,35.88,14.71,51.17,8.21,12,18.65,21.22,32.33,25.81C778,591.1,796.49,582.37,804.56,562.63Z" transform="translate(-710.87 -344.86)"/><path class="cls-1" d="M833.49,492.61c9.46,6.45,19.69,9.68,31,6.9,10.76-2.64,18.36-9.77,24.07-19.28,8.18-13.65,10.79-28.85,11-43.4a123,123,0,0,0-4.69-34c-5.21-17.92-13.8-33.64-27.9-45.65-8.3-7.06-17.64-11.84-28.5-12.26-14.36-.56-25.42,6-33.53,18.12-8,11.9-10.88,25.51-11.25,39.75a120.11,120.11,0,0,0,14.36,59.93C814.4,474.68,822.45,485.08,833.49,492.61Z" transform="translate(-710.87 -344.86)"/><path class="cls-1" d="M900.09,710.23a1.61,1.61,0,0,0-.79-.1l-.3,0c-1,.15-1.6,1.15-1.73,3a12.91,12.91,0,0,0,.08,2.32l.06.38a3,3,0,0,0,1.37,2.41,1.92,1.92,0,0,0,1.13.17c1.14-.16,1.74-1.28,1.8-3.37a14.69,14.69,0,0,0-.13-1.67C901.31,711.55,900.82,710.49,900.09,710.23Z" transform="translate(-710.87 -344.86)"/><path class="cls-1" d="M1039.15,646.23c-15.39-21.83-30.94-43.55-46.33-65.38-6.6-9.36-13.41-18.49-22-26-16.29-14.38-34.86-22.44-53.2-22.26-14.06.38-24.38,2.94-34.21,7.64-15.78,7.55-28.37,19.16-38.66,33.56q-25.57,35.82-50.95,71.79c-7.75,11-13.9,22.75-16.76,36.19-4.41,20.66,2.69,39.07,19.69,50.52,17.34,11.68,35.9,13.44,55.49,7.43,7.94-2.44,15.3-6.38,23.09-9.15,20.59-7.3,41.57-7.09,62.72-3.38,16,2.81,31.49,7.42,46.92,12.44,6.9,2.24,13.76,4.18,21.12,3.58a61.82,61.82,0,0,0,25.48-8.3c20.8-11.75,29.2-32.12,23.19-56C1051.75,666.87,1046.16,656.16,1039.15,646.23ZM882,725.56q-6.19-5.7-6.26-5.73v0l1.63,6.82-.05,0-3.93,1.07v0q-3.42-14.22-3.71-15.62l3-.8q6.39,5.94,6.59,6.1v0c-1-4.58-1.62-7.23-1.76-8q2.94-.63,4-.81,1.79,8,3.55,16.1Zm23.09-6.24a5.75,5.75,0,0,1-2,2.12,6.8,6.8,0,0,1-2.65,1l-.41.06a5.44,5.44,0,0,1-4.15-1,7.45,7.45,0,0,1-2-3.21,15.25,15.25,0,0,1-.48-2l-.11-.73a12.55,12.55,0,0,1,.7-6.18,5.43,5.43,0,0,1,4.42-3.25l.16,0a5.71,5.71,0,0,1,4.9,1.46,7.28,7.28,0,0,1,1,1.52,13.66,13.66,0,0,1,1.14,3.67l.13.95A11.06,11.06,0,0,1,905.07,719.32Zm21-3.46-2.84,6.7-2.94-.12a14.64,14.64,0,0,1-.66-2.06s-1.21-3.8-3.52-11.32c-.53-1.65-.8-2.52-.8-2.62,1.94-.63,3.26-1,4-1.21l2.84,9.09h.06l3.86-8.94h0l3.75,1.67Q929.85,707.19,926.11,715.86Zm18.39,9.54s-.16-1-.48-2.8l-4.59-.71a20.88,20.88,0,0,0-1.42,2.34,1.38,1.38,0,0,1-.25.35l-3.54-2.28v0q8.47-14.09,8.63-14.37l3,.46q2.76,16.25,2.75,16.31C946.1,725.14,944.74,725.38,944.5,725.4Z" transform="translate(-710.87 -344.86)"/><path class="cls-1" d="M942.83,716.1c-.19.33-.57,1-1.17,2l1.6.25c-.18-1-.31-1.69-.38-2.2Z" transform="translate(-710.87 -344.86)"/><path class="cls-1" d="M1120.41,499.17c-3.38-15.22-11.74-26.32-26.7-30.63-11.35-3.27-22.35-1.08-32.37,4.88-24.54,14.6-35.66,37.64-37.48,66.25a75.17,75.17,0,0,0,1.67,14.44c2.81,11.95,8.42,21.92,19,28,11.37,6.51,23.07,5.69,34.59.55,14.89-6.64,25.48-18.24,33.11-32.83C1120.57,534,1124.4,517.11,1120.41,499.17Z" transform="translate(-710.87 -344.86)"/></svg>